<svg xmlns="http://www.w3.org/2000/svg" viewBox="0 0 179.29 99.72"><defs><style>.cls-1{fill:#fff;}.cls-2{fill:#e5bbc1;}.cls-3{fill:#bf7ba0;}</style></defs><title>cloud2</title><g id="OBJECTS"><path class="cls-1" d="M-65-112.87a5.92,5.92,0,0,1-3.51,2.66c-7.27,2.8-15.3,2.62-23.07,2.08-3.86-.27-7.72-.62-11.57-1a24.27,24.27,0,0,0-1.71-7.68c-2.05-4.92-6.92-9.08-12.22-8.55,6.89-7.71,9.31-19.37,5.33-28.91s-14.55-16.12-24.8-14.75-18.9,11.12-18.34,21.44a14.5,14.5,0,0,0-19.1,2.46c-.58-6.43-4.41-12.76-10.4-15.17a12.59,12.59,0,0,0-2.89-.77l.22-.13a15.48,15.48,0,0,1,18.64,3.92c.7-4.32,3.08-8.2,6-11.49,12-13.75,33.95-17.59,49.92-8.74s24.35,29.48,19.06,47a20.26,20.26,0,0,1,17.92-.05,20.28,20.28,0,0,1,10.74,14.35A5.57,5.57,0,0,1-65-112.87Z" transform="translate(240.59 187.15)"/><path class="cls-2" d="M-103.14-109.13c-11.55-1.15-23.08-2.59-34.68-3-14.61-.52-29.24.59-43.86.86a379.92,379.92,0,0,1-40.48-1.43,13.93,13.93,0,0,1-6.05-1.49c-1.79-1.09-3.1-3.28-2.47-5.29,1.23-4,17.58-1.69,20.1-6.81,2.64-5.33-3.54-11.36,3.91-15.9,3.56-2.16,8-1.85,12.17-1.47a15.47,15.47,0,0,1,7.23-17.4,12.59,12.59,0,0,1,2.89.77c6,2.41,9.82,8.74,10.4,15.17a14.5,14.5,0,0,1,19.1-2.46c-.56-10.32,8.1-20.06,18.34-21.44s20.81,5.21,24.8,14.75,1.56,21.2-5.33,28.91c5.3-.53,10.17,3.63,12.22,8.55A24.27,24.27,0,0,1-103.14-109.13Z" transform="translate(240.59 187.15)"/><path class="cls-3" d="M-202.1-119.95a18.65,18.65,0,0,1,11.45,9.18c-.6-1.13-25.13.34-28,.17-5.73-.34-13.71.84-16-5.64-5.14-14.35,13.79-13.43,18.2-1.8C-212-120.26-207.1-121.3-202.1-119.95Z" transform="translate(240.59 187.15)"/><path class="cls-1" d="M-128.8-125.83a27.7,27.7,0,0,1,9.11-1.49,7.94,7.94,0,0,0-5.39-1.89c-1.56,0-3.62,1-5,.84-2.25-.31-1.14-.18-2.84-2,0,0-4.28-10.58-13.95-10.58,8.86,3.52,13.41,12.53,13.92,18A7.81,7.81,0,0,1-128.8-125.83Z" transform="translate(240.59 187.15)"/><path class="cls-2" d="M-85.65-122.28c-2-1.73-9.43,2.06-11.16,3.17-3.11,2-4.63,5-7.17,7.38C-110.27-120.1-92.12-127.83-85.65-122.28Z" transform="translate(240.59 187.15)"/><path class="cls-2" d="M-89.7-94.17c-13.36,0-27-2.86-39.53,1.59a9.15,9.15,0,0,1,.72-8.86c1.78-2.61,4.14-3.44,5.9-5.54a35.29,35.29,0,0,1,4.69,3.48c-.67-4,4.11-7.6,8-6.42s6.09,5.88,5.22,9.87c3.51-2.63,8.82-1.34,12,1.73A17.14,17.14,0,0,1-89.7-94.17Z" transform="translate(240.59 187.15)"/><path class="cls-1" d="M-78.08-95.6A9.41,9.41,0,0,1-82-94.52a65.67,65.67,0,0,1-7.69.35,17.14,17.14,0,0,0-3-4.15c-3.14-3.07-8.45-4.36-12-1.73.87-4-1.29-8.69-5.22-9.87s-8.7,2.38-8,6.42a35.29,35.29,0,0,0-4.69-3.48,9.14,9.14,0,0,0,.79-1.14c2.51-4.3,2.13-7,8.15-8.17a12.57,12.57,0,0,1,5.56,0c5.35,1.39,8.17,7.08,10.32,12.17.72-3,4.89-3.83,7.54-2.32s4.09,4.45,5.36,7.22c.35-1.56,2.12-2.36,3.71-2.5,2-.21,4.54.66,4.9,2.68A3.54,3.54,0,0,1-78.08-95.6Z" transform="translate(240.59 187.15)"/><path class="cls-1" d="M-98.35-132.13l-.44-.24,1.59-3,0,0c6.3-12.77,6.87-30.92-4.48-42.24-7.91-7.9-20.65-11-32.44-7.85-10.57,2.8-20.42,10.44-27,20.95l-.42-.27c6.66-10.61,16.62-18.33,27.32-21.17,12-3.17,24.88,0,32.91,8C-88.84-165.53-90.49-145.07-98.35-132.13Z" transform="translate(240.59 187.15)"/><path class="cls-1" d="M-68.53-113.6l-.43,0,0-.5a6.61,6.61,0,0,0,5.06-2,6.62,6.62,0,0,0,2.06-5,10,10,0,0,0-1.62-4.51,20.21,20.21,0,0,0-15-9.48A20.22,20.22,0,0,0-95-128.88l-.37-.34a20.77,20.77,0,0,1,17-6.45A20.7,20.7,0,0,1-63-125.95a10.5,10.5,0,0,1,1.69,4.73,7.12,7.12,0,0,1-2.21,5.44A7.18,7.18,0,0,1-68.53-113.6Z" transform="translate(240.59 187.15)"/><path class="cls-1" d="M-100-132.6l1.24-4.23.35.1A37.73,37.73,0,0,0-94.86-159c-1.43-8.53-6.4-16-13.3-20-7.37-4.27-16.82-4.19-23.51.2l-.27-.42c6.84-4.49,16.5-4.57,24-.22,7,4.07,12.09,11.67,13.54,20.35a38.6,38.6,0,0,1-4.45,24.33Z" transform="translate(240.59 187.15)"/><path class="cls-1" d="M-132.2-127.2l.11-.5c1-4.38,0-8.71-2.48-11.58-2.8-3.19-7.73-4.11-11-2l-.27-.43c3.45-2.19,8.67-1.23,11.63,2.14a13.64,13.64,0,0,1,2.69,11.52c3.51-1.68,7.45-3.51,11.59-4,4.77-.55,9.28,1,11.77,4l-.39.32c-2.38-2.9-6.72-4.38-11.33-3.85-4.23.48-8.29,2.43-11.87,4.15Z" transform="translate(240.59 187.15)"/><path class="cls-1" d="M-68.2-92.11l-.28-.41a3.85,3.85,0,0,0,1.59-1.72,3.69,3.69,0,0,0-.07-2c-.44-1.86-1.63-5.23-4.58-6.85-2.73-1.5-6-1.06-9.24-.62l-.65.08a2,2,0,0,1-1.73-.33,2.08,2.08,0,0,1-.5-1l0-.11c-1-3.65-4.72-5.64-7.87-6.3a8.82,8.82,0,0,0-6.27.69c-1.71,1-2.91,3.44-2,5.36l-.45.22c-1.08-2.24.29-4.87,2.18-6a9.31,9.31,0,0,1,6.63-.75c3.3.69,7.21,2.79,8.26,6.66l0,.11a1.65,1.65,0,0,0,.35.79,1.62,1.62,0,0,0,1.33.2l.64-.09c3.28-.44,6.67-.9,9.55.68,3.12,1.72,4.37,5.23,4.83,7.18a4.17,4.17,0,0,1,0,2.27A4.23,4.23,0,0,1-68.2-92.11Z" transform="translate(240.59 187.15)"/><path class="cls-1" d="M-161.8-156.36a1.12,1.12,0,0,1-.87-.56c-3.6-4.63-7.52-7.53-11.63-8.6-4.39-1.15-10.2,0-12.83,4.46l-.43-.26c2.76-4.65,8.82-5.88,13.38-4.68,4.23,1.1,8.23,4.05,11.9,8.78l.15.17a.34.34,0,0,1,.31-.31.56.56,0,0,1,.51.44.41.41,0,0,1-.21.5A.73.73,0,0,1-161.8-156.36Zm-.31-.67a.62.62,0,0,0,.28.17h0a.15.15,0,0,0,.13,0,.14.14,0,0,0,.08-.09Z" transform="translate(240.59 187.15)"/><path class="cls-2" d="M-176.82-145.24c-.26-3.92,2.46-7.91,6.62-9.68,3.28-1.39,7.28-1.53,11.89-.42,1-5.14,4.94-9.89,10.85-13.09,6.85-3.69,14.5-4.35,20.46-1.74,6.89,3,11,10.77,9.19,17.31l-.48-.13c1.76-6.31-2.24-13.81-8.91-16.73-5.82-2.54-13.3-1.89-20,1.74-5.88,3.17-9.76,7.9-10.65,13l0,.26-.26-.06c-4.61-1.16-8.59-1-11.83.33-3.91,1.67-6.56,5.53-6.32,9.19Z" transform="translate(240.59 187.15)"/><path class="cls-2" d="M-226.2-126.59l-.43-.25a7.68,7.68,0,0,1,5.48-3.57,7.85,7.85,0,0,1,5.84,1.24c-.62-4.79-.9-10.8,1.7-16,2.44-4.88,8.35-8.93,14-7.25,4.87,1.45,7.66,6.29,9.84,11v-.3h.5l-.07,2.48-.44-1c-2.21-4.88-5-10.2-10-11.69-5.42-1.6-11.09,2.3-13.44,7-2.65,5.31-2.24,11.51-1.58,16.32l.09.66-.5-.44a7.2,7.2,0,0,0-5.92-1.5A7.21,7.21,0,0,0-226.2-126.59Z" transform="translate(240.59 187.15)"/><path class="cls-2" d="M-130.77-87.43a7.54,7.54,0,0,1-5.1-1.5c-2.7-2.34-2.12-6.71-.34-10a12.13,12.13,0,0,1,5-5.35,6.54,6.54,0,0,1,7.13.62l-.33.37a6.06,6.06,0,0,0-6.58-.54,11.59,11.59,0,0,0-4.79,5.14c-1.69,3.12-2.27,7.23.22,9.39,1.77,1.53,4.43,1.47,6.79,1.29,5.78-.43,11.61-1.06,17.35-1.88l.07.5c-5.75.81-11.59,1.45-17.38,1.88C-129.39-87.47-130.08-87.43-130.77-87.43Z" transform="translate(240.59 187.15)"/><path class="cls-3" d="M-183.17-108.54l-.08-.54c-.75-4.81-2.44-8.3-5-10.37-2.77-2.21-6.82-3-11.13-2.1-3.89.8-7.45,2.71-10.89,4.56l-.24-.44c3.47-1.87,7.06-3.8,11-4.61,4.45-.91,8.66-.1,11.55,2.2,2.59,2.08,4.32,5.49,5.12,10.15l.19-.22.38.32Z" transform="translate(240.59 187.15)"/><path class="cls-3" d="M-232.17-114.9a8.59,8.59,0,0,1-6.53-3,8.58,8.58,0,0,1-1-9.09,6.74,6.74,0,0,1,2.22-2.59,8,8,0,0,1,6.73-.61,14,14,0,0,1,9.25,9.25l-.48.14a13.53,13.53,0,0,0-8.91-8.91,7.57,7.57,0,0,0-6.32.54,6.32,6.32,0,0,0-2,2.41,8.06,8.06,0,0,0,1,8.54,8.08,8.08,0,0,0,8.22,2.52l.14.48A7.87,7.87,0,0,1-232.17-114.9Z" transform="translate(240.59 187.15)"/></g></svg>