<svg xmlns="http://www.w3.org/2000/svg" viewBox="0 0 470.18 291.45"><defs><style>.cls-1{fill:#e5bbc1;}.cls-2{fill:#fff;}.cls-3{fill:#bf7ba0;}</style></defs><title>cloud</title><g id="OBJECTS"><path class="cls-1" d="M63.19,198.57c-7.54-3.47-16.1-1.53-22.42,5.86s-10.05,20.26-9,32.59c-5.21-1.24-10.55-2.47-15.72-.8S5.86,243.1,4.2,251A8.8,8.8,0,0,0,4,254.39c.46,2.52,2.44,3.29,4.08,3.59,20.71,3.83,46.47,5.38,66.49-5.64C92.49,242.48,74.7,203.89,63.19,198.57Z" transform="translate(-3.69 -7.69)"/><path class="cls-2" d="M445.84,258.69c4.93-.2,10.1-.49,14.37-4.4s7.21-12.7,5.08-19.76c-2-6.64-7.24-8.78-11.85-9.48a47.69,47.69,0,0,0-24,2.62c.84-10.31-4.34-20.89-10.84-22.15s-13.13,7.06-13.87,17.39a34.07,34.07,0,0,0-3.34-23.09,22.45,22.45,0,0,0-13.74-11c-5.26-1.41-11.37-.32-14.72,6.26-1.74,3.41-2.47,7.79-3.31,12-5.08,25.5-20.5,54.57,6.64,54.38C399.42,261.25,422.65,259.6,445.84,258.69Z" transform="translate(-3.69 -7.69)"/><path class="cls-2" d="M382.42,230.61c-4.19-10.91-16.33-13.05-21.07-1.93,3.27-15.82,5.06-33.1,2.09-49.08s-11.58-30.13-22.06-31.24-21.11,14.61-19,30.93c-9.11-15.42-23.29-22.86-36.4-19.13,19-17.49,29.66-55.34,25.12-89.5-2.71-20.41-12-41.78-24-54.57A40.35,40.35,0,0,1,308,24.59c11.72,9,21.05,25.92,25.39,45.38,1.89,8.47,4.32,22.14,2.33,31.06-1.78,8-7.06,11.65-8.58,20.38,7.52-14.11,20-19.31,31.08-14.22s20.11,19,25.68,35.13C393.26,169.48,393.37,205.13,382.42,230.61Z" transform="translate(-3.69 -7.69)"/><path class="cls-1" d="M385.44,252.14c-3.09,3.17-6.9,4-10.55,4.76-20.52,4.24-41.76,8.41-61.59-1-4.63-2.18-9.47-5.12-14.14-3.19-2.45,1-4.61,3.33-6.78,5.43-25.77,25-60,26.28-86.51,3.1-4.59-4-9.08-8.8-14.22-10.31-4.87-1.43-9.86.16-14.72,1.57a194.49,194.49,0,0,1-107.37.5,6.81,6.81,0,0,1-4-2.35c-3.59-4.88.17-14,4-18.3,15.23-17,34.55-24.5,53-20.6-2.07-17,4.81-34.31,14.2-43s20.74-10.32,31.62-9.75c-.3-15.9,4.9-31.79,13.28-40.52s19.62-10,28.69-3.31c6-32.67,18.27-63.23,36.26-81.81C258.51,21.1,273,14.73,287,16.09c12,12.79,21.33,34.16,24,54.57,4.54,34.16-6.09,72-25.12,89.5,13.11-3.73,27.29,3.71,36.4,19.13-2.08-16.32,8.56-32,19-30.93s19.11,15.26,22.06,31.24,1.18,33.26-2.09,49.08c20.61-33.22,23.07,4.06,23.61,3,2,.44,3.92,2.5,4.58,5.54A17.66,17.66,0,0,1,385.44,252.14Z" transform="translate(-3.69 -7.69)"/><path class="cls-3" d="M163.36,195.47c11-.37,21.62,13.13,23.75,30.31,7.2-2.46,15.13,1.39,20.23,9.82s7.18,21.17,5.32,32.48C164,257,114.28,280,65.34,271.72c-6.5-1.09-14.31-4.6-15.81-14.69-1.08-7.23,1.78-14.38,4.87-19.95,11.54-20.73,27.91-32.37,45.16-34.14,17.87-1.83,26.55,8,40.69,23.72C143.38,210,151.72,195.87,163.36,195.47Z" transform="translate(-3.69 -7.69)"/><path class="cls-2" d="M405.75,287.8c-2.13,5.15-5.28,6.79-8.28,7.7a32.38,32.38,0,0,1-5.35,1.1c-.09-.45-.16-.88-.25-1.31-2.95-15.31-11.61-28.76-21.72-28.71-6.75,0-12.91,5.8-18.55,11.71-1.21,1.26-2.83,2.54-4,1.17a8.28,8.28,0,0,1-1.14-3.23,15.26,15.26,0,0,0-4.54-8.21c3.2-1,6.44-.67,9.66-.92a2.45,2.45,0,0,0,2.37-1.65c.63-1.46.73-3.74.95-5.77.74-6.63,3.25-11.46,5.95-13.65s5.63-2.14,8.47-2c7.42.39,11.9,5.28,18.06,13.72,5.51,7.58,14.1,2.57,18.56,10.85C408.34,273,407.88,282.68,405.75,287.8Z" transform="translate(-3.69 -7.69)"/><path class="cls-1" d="M103.06,262c-6.08-6.26-14.13-7.41-20.81-3-4.37,2.89-8.23,8.29-9.81,15.36s-.49,15.8,3.2,20.5c3.16,4,7.54,4.58,11.59,4.12,12.71-1.47,25.12-11.34,37.68-7.91,9.68,2.65,21.9-5.47,7-12.66-5.41-2.61-11.19.82-16.59-2.35C110.56,273.3,107.22,266.29,103.06,262Z" transform="translate(-3.69 -7.69)"/><path class="cls-1" d="M392.12,296.6a75.28,75.28,0,0,1-12.56.18l-43-1.76c-2.36-.11-5.41-1.58-5.73-7.22a20.86,20.86,0,0,1,.81-6.45c2-7.28,5.58-11.3,9.13-12.88.4-.18.8-.31,1.19-.45a15.26,15.26,0,0,1,4.54,8.21,8.28,8.28,0,0,0,1.14,3.23c1.15,1.37,2.77.09,4-1.17,5.64-5.91,11.8-11.67,18.55-11.71,10.11-.05,18.77,13.4,21.72,28.71C392,295.72,392,296.15,392.12,296.6Z" transform="translate(-3.69 -7.69)"/><path class="cls-2" d="M263.33,181.56c2.5-11.84,10.15-20.42,18-20.22-7.87,7.44-13.74,20-15.92,34.12-4.35-1.65-6.25-9.51-9.25-14.77-4.76-8.34-12-9.58-18.53-11.61C246.38,161.05,260.6,162.83,263.33,181.56Z" transform="translate(-3.69 -7.69)"/><path class="cls-1" d="M139.32,245.26C131,233.6,119,228.69,108.15,232.42c2.91-6.66,8.7-8.84,13.72-7.38s9.47,5.86,13.79,10.18c-1.54-1.54,3.07-13.77,3.9-14.78C141.63,226.71,139.36,238.18,139.32,245.26Z" transform="translate(-3.69 -7.69)"/><path class="cls-2" d="M389.15,186.68h-.65c.07-19.17-2-35.91-6.23-49.74-5-16.34-13.19-28.93-22.58-34.57-10.51-6.31-22.38-3.56-30.23,7a44.52,44.52,0,0,0-7.38,16.81l-.62-.35A45.82,45.82,0,0,1,329,108.56c8-10.8,20.15-13.62,30.89-7.17,9.54,5.72,17.9,18.51,22.94,35.09C387.11,150.45,389.23,167.34,389.15,186.68Z" transform="translate(-3.69 -7.69)"/><path class="cls-2" d="M384.19,191.55l.28-6,.65.08-.1,2.11c6-14.67,7.79-33.89,4.63-50.64-3.28-17.38-11.92-32.33-22.54-39a33,33,0,0,0-16.61-4.94,42.37,42.37,0,0,0-21.84,5.37l-.22-1a42.75,42.75,0,0,1,22.08-5.43,33.24,33.24,0,0,1,16.83,5c10.81,6.81,19.59,22,22.93,39.69s1.26,38-5.41,53.16Z" transform="translate(-3.69 -7.69)"/><path class="cls-2" d="M458.85,245.57q-.94,0-1.89-.09l0-1a19,19,0,0,0,8.53-1.12,4.26,4.26,0,0,0,2.05-1.36,7.51,7.51,0,0,0,1.11-3.83,17.74,17.74,0,0,0-3.18-11.27,20.83,20.83,0,0,0-7.31-6c-3.56-2-7.78-4-12.2-3.87s-8.59,2.78-11.13,7.22l-.53.93,0-1.25a67.35,67.35,0,0,0-4.59-22.64,10,10,0,0,0-1.85-3.27,4.32,4.32,0,0,0-3.34-1.09c-9.84.18-19,12.34-20.82,27.67l-.65-.19c1.9-15.81,11.32-28.33,21.46-28.52a4.79,4.79,0,0,1,3.7,1.25,10.76,10.76,0,0,1,2.05,3.59,68.5,68.5,0,0,1,4.65,22A13.75,13.75,0,0,1,446,215.91c4.5-.17,8.81,1.9,12.43,3.93a21.5,21.5,0,0,1,7.52,6.23,19.21,19.21,0,0,1,3.41,12.17,9.11,9.11,0,0,1-1.34,4.52,4.68,4.68,0,0,1-2.33,1.57A19.65,19.65,0,0,1,458.85,245.57Z" transform="translate(-3.69 -7.69)"/><path class="cls-2" d="M348.51,269l-.66-.09c.86-15.38,8.37-29,17.87-32.27a7.86,7.86,0,0,1,5.79-.15,13.65,13.65,0,0,1,4.8,4.21,54.77,54.77,0,0,1,8.45,15.75l.35-.15.44,2.53-.61.37a55.35,55.35,0,0,0-9-17.68,13.19,13.19,0,0,0-4.57-4,7.42,7.42,0,0,0-5.47.15C356.64,240.88,349.34,254.06,348.51,269Z" transform="translate(-3.69 -7.69)"/><path class="cls-2" d="M266.16,183.46l-.66-.07c.3-8.43-2.58-17-7.17-21.26s-10.69-4.13-15.19.37a40.11,40.11,0,0,0-5.4,7.61l-.48-.72a40.71,40.71,0,0,1,5.53-7.77c4.7-4.71,11.08-4.86,15.88-.39,4.24,4,7.09,11.44,7.47,19.22l.19,0Z" transform="translate(-3.69 -7.69)"/><path class="cls-1" d="M162.39,172.83l-.66-.06c.48-14.21,1-28.9,4.38-42.45,3.82-15.17,11-25.9,19.19-28.7,4.86-1.66,10.31.14,14.58,4.81A26,26,0,0,1,206,119.11c2-24.73,5.52-44,11-60.59,7-21.32,17.48-37.44,29.48-45.38,13.58-9,29.3-6.72,40,5.77l-.39.84C275.5,7.47,260,5.25,246.67,14.1,234.81,22,224.45,37.9,217.51,59c-5.62,17.08-9.16,37.15-11.13,63.18l-.29,3.79-.36-3.78a25.67,25.67,0,0,0-6.23-14.9c-4.12-4.52-9.38-6.25-14.07-4.65-8,2.72-15,13.21-18.71,28.07-2.9,11.52-3.67,24-4.13,36.21h0Z" transform="translate(-3.69 -7.69)"/><path class="cls-1" d="M9.46,252.38A5.07,5.07,0,0,1,7,251.75a6.82,6.82,0,0,1-3.11-5,17,17,0,0,1,1.31-9c4.22-10.39,13.45-14.5,20.49-9.33a59.3,59.3,0,0,1,3.1-28.58c3.49-9.31,9-16,15-18.3s12.85-.34,18.63,5.43,9.83,14.63,11.13,24.31l-.64.21c-1.27-9.4-5.22-18-10.84-23.64s-12.24-7.55-18.13-5.3-11.21,8.75-14.6,17.82a57.36,57.36,0,0,0-2.86,28.88l.19,1.15-.66-.55C19.2,224.16,9.91,228,5.74,238.3a15.41,15.41,0,0,0-1.23,8.2,5.72,5.72,0,0,0,2.7,4.27c2.09,1.17,4.87.52,6.74-1.58l.38.85A6.65,6.65,0,0,1,9.46,252.38Z" transform="translate(-3.69 -7.69)"/><path class="cls-1" d="M134,285.71l-.22-4.24.65-.08.05.89a8.7,8.7,0,0,0-.69-4.4,8.29,8.29,0,0,0-3.6-3.76,12.31,12.31,0,0,0-13,.31l-.38.23-.07-.62a28.78,28.78,0,0,0-7.8-16.41c-3.6-3.95-9.28-8.55-15.78-8.41-6,.19-11.44,4.77-14.24,11.94a33.29,33.29,0,0,0-2.1,13l-.66.06a35,35,0,0,1,2.2-13.62c2.92-7.47,8.58-12.23,14.79-12.43,6.67-.2,12.48,4.55,16.16,8.59a30.14,30.14,0,0,1,8,16.47,12.68,12.68,0,0,1,13-.1,9,9,0,0,1,3.91,4.13,9.39,9.39,0,0,1,.19,7.38Z" transform="translate(-3.69 -7.69)"/><path class="cls-1" d="M175.36,247.87l-.38-.39c-5.2-5.32-12-6.5-17.82-3.1l-.23-1c5.85-3.43,12.71-2.34,18,2.82,2.33-13.56,10.31-24,19.16-25,.59-.06,1.22-.21,1.38-.86,0,0,0-.09-.05-.22s-.29-.27-.33-.25l-.61,0a1.14,1.14,0,0,1,.34-.93c.34-.24.78,0,1,.42a1.8,1.8,0,0,1,.23,1.4,2,2,0,0,1-1.94,1.51c-8.73.94-16.59,11.4-18.69,24.86Z" transform="translate(-3.69 -7.69)"/><path class="cls-1" d="M378.58,233.65l-1.32-7.26.63-.29.63,3.5a56.26,56.26,0,0,0,.69-14.29c-.55-4.85-2.64-10.35-6.07-11.68-4.1-1.6-8.11,3.3-10.78,7.1L360.75,213l1.11-3c6-16,6.72-36.44,1.81-53.37C361,147.55,357,141,352.46,138.13c-3-1.88-6.77-2.35-11-1.4-7.25,1.62-13.54,6.6-17.72,14a45.74,45.74,0,0,0-4.57,29.62l-.63.32c-2-10-.13-22,4.71-30.64,4.28-7.61,10.72-12.72,18.12-14.37,4.38-1,8.21-.49,11.37,1.46,4.73,2.93,8.83,9.71,11.56,19.12a90.85,90.85,0,0,1-.92,51.75c2.69-3.47,6.25-6.85,10-5.41s6,7.32,6.55,12.51c.62,5.53-.14,11.25-1,16.63Z" transform="translate(-3.69 -7.69)"/><path class="cls-1" d="M156.7,173.65c-3.69-17.48-3.5-35.24.55-50,4.52-16.47,14.07-28.33,24.33-30.22,11.09-2,22.42,8.63,25.82,24.3l-.62.34c-3.3-15.23-14.33-25.6-25.12-23.61-10,1.85-19.38,13.47-23.81,29.6-4,14.53-4.17,32-.53,49.27Z" transform="translate(-3.69 -7.69)"/><path class="cls-2" d="M222.44,202.78l-1-2.13c-3-6.61-7.92-10.8-13.07-11.19s-10.27,3-13.7,9.13l-.49-.69c3.56-6.35,8.87-9.86,14.22-9.48,4.91.37,9.6,4.08,12.77,10a30.12,30.12,0,0,1,4.52-16.66c6.39-10.72,16.08-16,25.28-13.75l-.1,1c-9-2.19-18.45,3-24.7,13.44-1.65,2.75-5.34,10-4.15,17.73Z" transform="translate(-3.69 -7.69)"/><path class="cls-2" d="M453.75,254l-.15-1c4.08-1.5,8.19-3.21,12.18-5.1,2.5-1.17,5.28-2.73,6.6-6.28a19.25,19.25,0,0,0,.67-8.56A39.73,39.73,0,0,0,464,211.86c-3-3.54-7.62-7.69-12.76-7.35-8.15.55-14.34,11.72-19.51,22.14l-.51-.65c5.25-10.6,11.56-22,20-22.53,5.32-.34,10.11,3.91,13.18,7.56a41,41,0,0,1,9.31,21.89,20.69,20.69,0,0,1-.76,9.26c-1.43,3.88-4.35,5.52-7,6.75C462,250.82,457.85,252.54,453.75,254Z" transform="translate(-3.69 -7.69)"/><path class="cls-3" d="M140.7,226.22c-2-12.43,1.58-26.73,8.78-34.79,6.38-7.15,15.34-9.39,24-6a14.54,14.54,0,0,1,6.9,5.15,27.39,27.39,0,0,1,3.85,9.8,66,66,0,0,1,1,22.84l-.64-.21a64.49,64.49,0,0,0-1-22.28,26.11,26.11,0,0,0-3.67-9.37,13.92,13.92,0,0,0-6.61-4.92c-8.44-3.33-17.19-1.16-23.42,5.81-7,7.82-10.49,21.66-8.53,33.68Z" transform="translate(-3.69 -7.69)"/><path class="cls-3" d="M212.45,266.28l-.56-.54,2-6.41.15.12a42.49,42.49,0,0,0,.77-12.8c-.62-7-2.83-13.15-6.05-17s-7.6-5.51-12-4.53-8.3,4.48-10.73,9.6l-.52-.62c2.53-5.35,6.6-9,11.15-10s9.1.7,12.47,4.73,5.67,10.47,6.31,17.7S215,260.94,212.45,266.28Z" transform="translate(-3.69 -7.69)"/><path class="cls-3" d="M68.08,226.29c-.25-3.63,1.28-6.72,3-9.52,2.48-4.1,5.11-8.07,7.81-11.79s5.71-7.5,9.2-9.61c5.54-3.35,11.78-2.25,17.69-.57,3.57,1,7.67,2.36,11.3,5.36a23.92,23.92,0,0,1,7.89,13.68c.21,1,.44,1.53.7,1.53h0s-.05-.26-.09-.33a.16.16,0,0,0,.13.07.2.2,0,0,0,.13-.09l-.58-.49c.16-.46.41-.52.58-.42.32.17.49.9.44,1.45s-.28.84-.59.86h0c-.86,0-1.2-1.63-1.32-2.25a22.92,22.92,0,0,0-7.57-13.09c-3.55-2.93-7.6-4.25-11.11-5.25-5.82-1.66-12-2.75-17.34.52-3.4,2.05-6.34,5.74-9,9.42s-5.3,7.65-7.76,11.72c-1.59,2.62-3,5.48-2.8,8.69Z" transform="translate(-3.69 -7.69)"/><path class="cls-3" d="M142.46,220.16c-.54-7.15,1.16-14.69,4.43-19.68s8.09-7.82,14.78-8.73a16.83,16.83,0,0,1,7.07.26c6.93,2.06,12.61,11.6,13.5,22.69l-.65.13c-.86-10.65-6.32-19.82-13-21.8a16.49,16.49,0,0,0-6.9-.25c-6.53.9-11.23,3.67-14.37,8.46s-4.75,12-4.24,18.8Z" transform="translate(-3.69 -7.69)"/><path class="cls-3" d="M58.56,265.08c-5.08,0-10.19-2.35-14.36-6.83a10.45,10.45,0,0,1-3-6.09,14.68,14.68,0,0,1,.55-5c3.83-15.63,14.58-26.06,25.09-24.48.62-18.92,14.18-34.4,26.12-36.53,11.65-2.09,24,9.14,29.46,26.66l-.59.46c-5.3-17.15-17.41-28.11-28.8-26.08-11.79,2.1-25.19,17.44-25.55,36.09v.56l-.36-.06c-10.34-1.83-21,8.38-24.75,23.75a13.46,13.46,0,0,0-.51,4.46,9.42,9.42,0,0,0,2.74,5.39c6.07,6.52,14.19,8.41,21.19,4.94l.19,1A16.53,16.53,0,0,1,58.56,265.08Z" transform="translate(-3.69 -7.69)"/></g></svg>