<?xml version="1.0" encoding="utf-8"?>
<!-- Generator: Adobe Illustrator 24.0.0, SVG Export Plug-In . SVG Version: 6.00 Build 0)  -->
<svg version="1.1" id="Objects" xmlns="http://www.w3.org/2000/svg" xmlns:xlink="http://www.w3.org/1999/xlink" x="0px" y="0px"
	 viewBox="0 0 801 125.7" style="enable-background:new 0 0 801 125.7;" xml:space="preserve">
<style type="text/css">
	.st0{fill:#818E02;}
</style>
<g>
	<g>
		<g>
			<path class="st0" d="M-12.1,125.7c0,0,7-89.5,26-99.9s61.3,67.2,61.3,67.2s-4.5-70.7,21.3-76.6S136,92.9,136,92.9
				s7.9-59.8,25.1-58.5c17.2,1.4,4.9,58.5,4.9,58.5s31.7-28.2,40.1-19.6s1.2,19.6,1.2,19.6s19.9-22,37.3-20.8
				c12.1,0.9,26.4,20.8,26.4,20.8s-7.1-54.9,12.1-57.5s21.4,57.5,21.4,57.5s8.7-46.7,21.4-44.7s4.6,44.7,4.6,44.7s16.3-20.6,24-18.5
				c7.7,2-2.5,18.5-2.5,18.5S367.4,79.5,373,81s19.3,11.9,19.3,11.9s-16.3-37-6.2-43.1s33.8,43.1,33.8,43.1s-8.4-82.6,12.4-83.6
				S469,92.9,469,92.9s25.7-33.4,36.4-32.9c10.7,0.5,5.2,32.9,5.2,32.9s13.7-19,23.4-20.1c9.7-1,26.1,20.1,26.1,20.1
				s-22.5-44.1-11.3-48.3c11.3-4.1,37.4,48.3,37.4,48.3s-14.2-89.8,6-92.8c20.2-3.1,14.5,92.8,14.5,92.8s6.1-68.2,25.6-67.2
				c19.5,1-4.6,67.2-4.6,67.2s14.3-39.5,28.2-34.4c13.8,5.1-3.1,34.4-3.1,34.4s29.7-28.8,49.2-30.1c19.5-1.3,26.4,30.1,26.4,30.1
				s28.5-63.1,46-65c48.9-5.3,47.7,97.8,47.7,97.8L-12.1,125.7L-12.1,125.7z"/>
		</g>
	</g>
</g>
</svg>
